<svg width="48" height="48" viewBox="0 0 48 48" fill="none" xmlns="http://www.w3.org/2000/svg">
<g clip-path="url(#clip0_3_39)">
<path d="M24 0C37.2548 0 48 10.7452 48 24C48 37.2548 37.2548 48 24 48C10.7452 48 0 37.2548 0 24C3.29859e-05 10.7452 10.7452 0 24 0ZM17.8887 30.3721C16.3332 30.3722 15.1113 31.4945 15.1113 32.9219V34.4512C15.1114 35.8785 16.3333 36.9999 17.8887 37C19.4442 37 20.6669 35.8785 20.667 34.4512V32.9219C20.667 31.4944 19.4442 30.3721 17.8887 30.3721ZM24.5557 27.8232C23.0003 27.8232 21.7776 28.9448 21.7773 30.3721V34.4512C21.7775 35.8785 23.0002 37 24.5557 37C26.1111 36.9999 27.3329 35.8785 27.333 34.4512V30.3721C27.3327 28.9449 26.111 27.8233 24.5557 27.8232ZM31.2227 21.7061C29.6671 21.7061 28.4443 22.8274 28.4443 24.2549V34.4512C28.4444 35.8785 29.6672 37 31.2227 37C32.7779 36.9998 33.9999 35.8784 34 34.4512V24.2549C34 22.8276 32.778 21.7063 31.2227 21.7061ZM17.8887 32.4121C18.222 32.4121 18.4443 32.616 18.4443 32.9219V34.4512C18.4442 34.757 18.2219 34.9609 17.8887 34.9609C17.5555 34.9608 17.3331 34.7569 17.333 34.4512V32.9219C17.333 32.6161 17.5555 32.4122 17.8887 32.4121ZM24.5557 29.8623C24.8888 29.8623 25.1111 30.0665 25.1113 30.3721V34.4512C25.1112 34.7569 24.8889 34.9609 24.5557 34.9609C24.2224 34.9609 24.0001 34.757 24 34.4512V30.3721C24.0002 30.0665 24.2225 29.8623 24.5557 29.8623ZM31.2227 23.7451C31.5557 23.7453 31.7773 23.9491 31.7773 24.2549V34.4512C31.7773 34.7568 31.5557 34.9608 31.2227 34.9609C30.8894 34.9609 30.6671 34.757 30.667 34.4512V24.2549C30.667 23.949 30.8893 23.7451 31.2227 23.7451ZM31.0596 11C30.4658 11.0002 29.9805 11.4626 29.9805 12.0273C29.9806 12.5919 30.4659 13.0535 31.0596 13.0537H33.3281L19.7197 25.9941L16.9658 23.376C16.5338 22.9652 15.8861 22.9652 15.4541 23.376L10.3242 28.2539C9.89226 28.6647 9.89235 29.2806 10.3242 29.6914C10.5402 29.8968 10.8101 30 11.0801 30C11.3501 30 11.62 29.8968 11.8359 29.6914L16.21 25.5322L18.9639 28.1514C19.3958 28.5621 20.0436 28.562 20.4756 28.1514L34.8398 14.4922V16.6484C34.8398 17.2133 35.326 17.6757 35.9199 17.6758C36.5139 17.6758 37 17.2133 37 16.6484V12.0273C37 11.4625 36.5139 11 35.9199 11H31.0596ZM15.1113 14.0586C14.5003 14.0586 14.0002 14.5175 14 15.0781C14 15.6389 14.5002 16.0977 15.1113 16.0977H21.2227C21.8336 16.0974 22.333 15.6388 22.333 15.0781C22.3328 14.5176 21.8335 14.0588 21.2227 14.0586H15.1113ZM25.3887 14.3643C24.9442 14.0077 24.2218 14.0075 23.833 14.3643C23.7775 14.4152 23.7227 14.4666 23.7227 14.5176C23.6671 14.5686 23.6669 14.6197 23.6113 14.7217C23.5558 14.7727 23.5557 14.8238 23.5557 14.9258V15.333C23.5557 15.384 23.6113 15.4352 23.6113 15.5371C23.6113 15.5881 23.6671 15.6394 23.7227 15.6904C23.7777 15.7412 23.7779 15.792 23.833 15.8428C23.9997 15.9957 24.2779 16.0977 24.5557 16.0977C24.8334 16.0976 25.1108 15.9958 25.333 15.792C25.3884 15.7412 25.444 15.6905 25.4443 15.6396C25.4999 15.5887 25.5001 15.5373 25.5557 15.4863C25.6112 15.4354 25.6113 15.3842 25.6113 15.2822V14.874C25.611 14.8233 25.5558 14.7723 25.5557 14.6709C25.5557 14.6199 25.5 14.5686 25.5 14.5176C25.4445 14.4666 25.4442 14.4152 25.3887 14.3643ZM15.1113 11C14.5002 11 14 11.4588 14 12.0195C14 12.5803 14.5002 13.0391 15.1113 13.0391H17.333C17.9441 13.0391 18.4443 12.5803 18.4443 12.0195C18.4443 11.4588 17.9441 11 17.333 11H15.1113Z" fill="#D04A1D"/>
</g>
<defs>
<clipPath id="clip0_3_39">
<rect width="48" height="48" fill="white"/>
</clipPath>
</defs>
</svg>
