<svg width="48" height="48" viewBox="0 0 48 48" fill="none" xmlns="http://www.w3.org/2000/svg">
<g clip-path="url(#clip0_3_24)">
<path d="M24 0C37.2 0 48 10.8 48 24C48 37.3 37.2 48 24 48C10.7 48 0 37.2 0 24C0 10.8 10.7 0 24 0ZM23.5 9C17.3001 9.00001 12.1005 13.6999 11.4004 19.7998C11.4004 20.2997 11.4999 20.7 11.7998 21C12 21.2002 12.2454 21.3541 12.5049 21.4355C12.5028 21.4565 12.5 21.4779 12.5 21.5V24H12C11.2 24 10.5 24.7 10.5 25.5V29.5C10.5 30.3 11.2 31 12 31H13.5947C13.8105 31.5702 14.3737 32 15 32C15.8 32 16.5 31.3 16.5 30.5V24.5C16.5 23.7 15.8 23 15 23C14.3737 23 13.8105 23.4298 13.5947 24H13.5V21.5C13.5 21.4585 13.4947 21.4192 13.4873 21.3818C13.9821 21.174 14.3268 20.7148 14.4004 20.2002C14.9004 15.5002 18.7004 12 23.4004 12C28.1002 12.0002 32.0004 15.5003 32.4004 20.2002C32.4831 20.7787 32.9074 21.2877 33.5039 21.4473C33.5025 21.4645 33.5 21.482 33.5 21.5V24H33.4053C33.1895 23.4298 32.6263 23 32 23C31.2 23 30.5 23.7 30.5 24.5V30.5C30.5 31.3 31.2 32 32 32C32.6263 32 33.1895 31.5702 33.4053 31H34.5V31.5C34.5 34.5 32 37 29 37H27.4053C27.1895 36.4298 26.6263 36 26 36H25C24.2 36 23.5 36.7 23.5 37.5C23.5 38.3 24.2 39 25 39H26C26.6263 39 27.1895 38.5702 27.4053 38H29C32.6 38 35.5 35.1 35.5 31.5V30.9053C36.0702 30.6895 36.5 30.1263 36.5 29.5V25.5C36.5 24.7 35.8 24 35 24H34.5V21.5C34.5 21.4647 34.4966 21.4308 34.4912 21.3984C34.7117 21.3215 34.8878 21.2118 35 21.0996C35.2998 20.6998 35.4003 20.3002 35.4004 19.9004C34.9004 13.7004 29.7 9 23.5 9ZM26 37C26.3 37 26.5 37.2 26.5 37.5C26.5 37.8 26.3 38 26 38H25C24.7 38 24.5 37.8 24.5 37.5C24.5 37.2 24.7 37 25 37H26ZM20 27C19.2 27 18.5 27.7 18.5 28.5V32.5C18.5 33.3 19.2 34 20 34H20.5V35.5C20.5 35.6 20.5998 35.8004 20.7998 35.9004C20.8001 36 20.9001 36 21 36C21.0999 36 21.1999 36.0001 21.2998 35.9004L24.2002 34H27C27.8 34 28.5 33.3 28.5 32.5V28.5C28.5 27.7 27.8 27 27 27H20ZM27 28C27.3 28 27.5 28.2 27.5 28.5V32.5C27.5 32.8 27.3 33 27 33H24C23.9001 33 23.8001 32.9999 23.7002 33.0996L21.5 34.5996V33.5C21.5 33.2 21.3 33 21 33H20C19.7 33 19.5 32.8 19.5 32.5V28.5C19.5 28.2 19.7 28 20 28H27ZM20.9004 31C20.6004 31 20.4004 31.2 20.4004 31.5C20.4004 31.8 20.6004 32 20.9004 32H24.0996C24.3996 32 24.5996 31.8 24.5996 31.5C24.5996 31.2 24.3996 31 24.0996 31H20.9004ZM15 24C15.3 24 15.5 24.2 15.5 24.5V30.5C15.5 30.8 15.3 31 15 31C14.7 31 14.5 30.8 14.5 30.5V24.5C14.5 24.2 14.7 24 15 24ZM32 24C32.3 24 32.5 24.2 32.5 24.5V30.5C32.5 30.8 32.3 31 32 31C31.7 31 31.5 30.8 31.5 30.5V24.5C31.5 24.2 31.7 24 32 24ZM13.5 30H12C11.7 30 11.5 29.8 11.5 29.5V25.5C11.5 25.2 11.7 25 12 25H13.5V30ZM20.9004 29C20.6004 29 20.4004 29.2 20.4004 29.5C20.4004 29.8 20.6004 30 20.9004 30H26.0996C26.3996 30 26.5996 29.8 26.5996 29.5C26.5996 29.2 26.3996 29 26.0996 29H20.9004ZM35 25C35.3 25 35.5 25.2 35.5 25.5V29.5C35.5 29.8 35.3 30 35 30H33.5V25H35ZM23.5 10C29.3 10 34 14.2004 34.5 19.9004C34.5 20.0999 34.5 20.2 34.4004 20.2998C34.3004 20.3998 34.1 20.5 34 20.5C33.7 20.5 33.5 20.2996 33.5 20.0996C32.9998 14.8998 28.6999 11 23.5 11C18.3 11 14 14.9 13.5 20C13.4 20.4 12.8996 20.5998 12.5996 20.2998C12.5 20.1998 12.5 20.0004 12.5 19.9004C13.1 14.3004 17.7 10 23.5 10Z" fill="#D04A1D"/>
</g>
<defs>
<clipPath id="clip0_3_24">
<rect width="48" height="48" fill="white"/>
</clipPath>
</defs>
</svg>
