<svg width="121" height="114" viewBox="0 0 121 114" fill="none" xmlns="http://www.w3.org/2000/svg">
<path d="M60.1184 0C61.2712 0 62.4239 0.223747 63.4764 0.648867L110.689 18.5263C116.202 20.6071 120.312 25.4625 120.287 31.3246C120.162 53.5204 109.937 94.1305 66.7592 112.59C62.5743 114.38 57.7127 114.38 53.5277 112.59C10.3247 94.1305 0.125413 53.5204 0.000113984 31.3246C-0.0249458 25.4625 4.08485 20.6071 9.59799 18.5263L56.7855 0.648867C57.838 0.223747 58.9657 0 60.1184 0ZM60.1184 14.9463V99.5452C94.7009 84.5989 103.998 51.4843 104.224 31.6603L60.1184 14.9687V14.9463Z" fill="#D04A1D"/>
</svg>
