<svg width="30" height="36" viewBox="0 0 30 36" fill="none" xmlns="http://www.w3.org/2000/svg">
<path d="M15 30.5L3.75 24.25V11.75L15 5.5L26.25 11.75V24.25L15 30.5ZM11.375 14.5625C11.8542 14.0625 12.4062 13.6771 13.0312 13.4062C13.6562 13.1354 14.3125 13 15 13C15.6875 13 16.3438 13.1354 16.9688 13.4062C17.5938 13.6771 18.1458 14.0625 18.625 14.5625L22.375 12.4688L15 8.375L7.625 12.4688L11.375 14.5625ZM13.75 26.9375V22.8438C12.625 22.5521 11.7188 21.9583 11.0312 21.0625C10.3438 20.1667 10 19.1458 10 18C10 17.7708 10.0104 17.5573 10.0312 17.3594C10.0521 17.1615 10.0938 16.9583 10.1562 16.75L6.25 14.5625V22.7812L13.75 26.9375ZM15 20.5C15.6875 20.5 16.276 20.2552 16.7656 19.7656C17.2552 19.276 17.5 18.6875 17.5 18C17.5 17.3125 17.2552 16.724 16.7656 16.2344C16.276 15.7448 15.6875 15.5 15 15.5C14.3125 15.5 13.724 15.7448 13.2344 16.2344C12.7448 16.724 12.5 17.3125 12.5 18C12.5 18.6875 12.7448 19.276 13.2344 19.7656C13.724 20.2552 14.3125 20.5 15 20.5ZM16.25 26.9375L23.75 22.7812V14.5625L19.8438 16.75C19.9062 16.9583 19.9479 17.1615 19.9688 17.3594C19.9896 17.5573 20 17.7708 20 18C20 19.1458 19.6562 20.1667 18.9688 21.0625C18.2812 21.9583 17.375 22.5521 16.25 22.8438V26.9375Z" fill="#D1D5DB"/>
</svg>
