<svg width="25" height="29" viewBox="0 0 25 29" fill="none" xmlns="http://www.w3.org/2000/svg">
<path d="M12.0176 16.4243C12.5684 16.4243 13.0399 16.2282 13.4321 15.836C13.8244 15.4437 14.0205 14.9722 14.0205 14.4214C14.0205 13.8706 13.8244 13.3991 13.4321 13.0069C13.0399 12.6146 12.5684 12.4185 12.0176 12.4185C11.4667 12.4185 10.9952 12.6146 10.603 13.0069C10.2107 13.3991 10.0146 13.8706 10.0146 14.4214C10.0146 14.9722 10.2107 15.4437 10.603 15.836C10.9952 16.2282 11.4667 16.4243 12.0176 16.4243ZM8.01171 20.4302H16.0234V19.8543C16.0234 19.4538 15.9149 19.0866 15.6979 18.7527C15.4809 18.4189 15.1805 18.1686 14.7966 18.0016C14.3626 17.818 13.9162 17.6762 13.4572 17.576C12.9982 17.4759 12.5183 17.4258 12.0176 17.4258C11.5168 17.4258 11.037 17.4759 10.578 17.576C10.1189 17.6762 9.67246 17.818 9.2385 18.0016C8.8546 18.1686 8.55416 18.4189 8.33718 18.7527C8.1202 19.0866 8.01171 19.4538 8.01171 19.8543V20.4302ZM18.0263 24.436H6.00878C5.45798 24.436 4.98646 24.2399 4.59422 23.8477C4.20198 23.4554 4.00586 22.9839 4.00586 22.4331V6.40973C4.00586 5.85892 4.20198 5.3874 4.59422 4.99516C4.98646 4.60292 5.45798 4.4068 6.00878 4.4068H14.0205L20.0292 10.4156V22.4331C20.0292 22.9839 19.8331 23.4554 19.4409 23.8477C19.0486 24.2399 18.5771 24.436 18.0263 24.436ZM18.0263 22.4331V11.2668L13.1692 6.40973H6.00878V22.4331H18.0263ZM6.00878 22.4331V6.40973V11.2668V22.4331Z" fill="#9CA3AF"/>
</svg>
