<svg width="26" height="26" viewBox="0 0 26 26" fill="none" xmlns="http://www.w3.org/2000/svg">
<path d="M21.2121 8.48461L12.7273 13.7876L4.24243 8.48461V6.3634L12.7273 11.6664L21.2121 6.3634M21.2121 4.24219H4.24243C3.06516 4.24219 2.12122 5.18613 2.12122 6.3634V19.0907C2.12122 19.6533 2.3447 20.1928 2.7425 20.5906C3.14031 20.9884 3.67985 21.2119 4.24243 21.2119H21.2121C21.7747 21.2119 22.3142 20.9884 22.712 20.5906C23.1099 20.1928 23.3333 19.6533 23.3333 19.0907V6.3634C23.3333 5.80082 23.1099 5.26128 22.712 4.86348C22.3142 4.46567 21.7747 4.24219 21.2121 4.24219Z" fill="#D75C37"/>
</svg>
