<svg width="28" height="33" viewBox="0 0 28 33" fill="none" xmlns="http://www.w3.org/2000/svg">
<path d="M13.7958 20.5496C15.1918 20.5496 16.3785 20.0609 17.3557 19.0837C18.3329 18.1065 18.8215 16.9199 18.8215 15.5238C18.8215 14.1278 18.3329 12.9412 17.3557 11.964C16.3785 10.9867 15.1918 10.4981 13.7958 10.4981C12.3998 10.4981 11.2132 10.9867 10.2359 11.964C9.25871 12.9412 8.7701 14.1278 8.7701 15.5238C8.7701 16.9199 9.25871 18.1065 10.2359 19.0837C11.2132 20.0609 12.3998 20.5496 13.7958 20.5496ZM13.7958 18.5393C12.9582 18.5393 12.2462 18.2461 11.6599 17.6598C11.0736 17.0734 10.7804 16.3615 10.7804 15.5238C10.7804 14.6862 11.0736 13.9742 11.6599 13.3879C12.2462 12.8016 12.9582 12.5084 13.7958 12.5084C14.6334 12.5084 15.3454 12.8016 15.9317 13.3879C16.5181 13.9742 16.8112 14.6862 16.8112 15.5238C16.8112 16.3615 16.5181 17.0734 15.9317 17.6598C15.3454 18.2461 14.6334 18.5393 13.7958 18.5393ZM13.7958 23.9C11.0782 23.9 8.60258 23.1415 6.36893 21.6245C4.13528 20.1075 2.51588 18.0739 1.51074 15.5238C2.51588 12.9738 4.13528 10.9402 6.36893 9.42319C8.60258 7.90617 11.0782 7.14766 13.7958 7.14766C16.5134 7.14766 18.9891 7.90617 21.2227 9.42319C23.4564 10.9402 25.0757 12.9738 26.0809 15.5238C25.0757 18.0739 23.4564 20.1075 21.2227 21.6245C18.9891 23.1415 16.5134 23.9 13.7958 23.9ZM13.7958 21.6664C15.8992 21.6664 17.8303 21.1126 19.5893 20.0051C21.3483 18.8976 22.6932 17.4038 23.6239 15.5238C22.6932 13.6439 21.3483 12.1501 19.5893 11.0426C17.8303 9.93507 15.8992 9.38131 13.7958 9.38131C11.6925 9.38131 9.76129 9.93507 8.00229 11.0426C6.24329 12.1501 4.89844 13.6439 3.96776 15.5238C4.89844 17.4038 6.24329 18.8976 8.00229 20.0051C9.76129 21.1126 11.6925 21.6664 13.7958 21.6664Z" fill="#D04A1D"/>
</svg>
