<svg width="10" height="10" viewBox="0 0 10 10" fill="none" xmlns="http://www.w3.org/2000/svg">
<g clip-path="url(#clip0_887_309)">
<path d="M7.62665 1.03146C8.8278 1.88943 9.6095 3.29267 9.6095 4.88086C9.6095 7.48907 7.497 9.60347 4.8907 9.60919C2.28821 9.61491 0.156649 7.49288 0.152836 4.88848C0.150929 3.3003 0.932629 1.89324 2.13187 1.03337C2.35494 0.875123 2.66572 0.941853 2.79918 1.18018L3.10042 1.71593C3.21291 1.91612 3.15952 2.16969 2.97458 2.30697C2.18335 2.8942 1.6781 3.82461 1.6781 4.87895C1.6762 6.63873 3.09851 8.08392 4.88117 8.08392C6.6276 8.08392 8.09567 6.66924 8.08423 4.85989C8.07851 3.87228 7.61331 2.91898 6.78585 2.30506C6.60091 2.16779 6.54943 1.91421 6.66192 1.71593L6.96316 1.18018C7.09662 0.94376 7.40549 0.873216 7.62665 1.03146ZM5.6438 5.03339V0.457581C5.6438 0.204005 5.4398 0 5.18622 0H4.57611C4.32254 0 4.11853 0.204005 4.11853 0.457581V5.03339C4.11853 5.28696 4.32254 5.49097 4.57611 5.49097H5.18622C5.4398 5.49097 5.6438 5.28696 5.6438 5.03339Z" fill="#E6E6E6"/>
</g>
<defs>
<clipPath id="clip0_887_309">
<rect width="9.76172" height="9.76172" fill="white"/>
</clipPath>
</defs>
</svg>
