<svg width="25" height="29" viewBox="0 0 25 29" fill="none" xmlns="http://www.w3.org/2000/svg">
<path d="M12.0176 14.4214C10.9159 14.4214 9.9729 14.0292 9.18842 13.2447C8.40395 12.4602 8.01171 11.5172 8.01171 10.4156C8.01171 9.31396 8.40395 8.37091 9.18842 7.58644C9.9729 6.80196 10.9159 6.40972 12.0176 6.40972C13.1192 6.40972 14.0622 6.80196 14.8467 7.58644C15.6312 8.37091 16.0234 9.31396 16.0234 10.4156C16.0234 11.5172 15.6312 12.4602 14.8467 13.2447C14.0622 14.0292 13.1192 14.4214 12.0176 14.4214ZM4.00586 22.4331V19.629C4.00586 19.0615 4.15191 18.5399 4.444 18.0642C4.73609 17.5885 5.12416 17.2255 5.6082 16.9751C6.64304 16.4577 7.69458 16.0697 8.7628 15.8109C9.83103 15.5522 10.9159 15.4229 12.0176 15.4229C13.1192 15.4229 14.2041 15.5522 15.2723 15.8109C16.3405 16.0697 17.3921 16.4577 18.4269 16.9751C18.9109 17.2255 19.299 17.5885 19.5911 18.0642C19.8832 18.5399 20.0292 19.0615 20.0292 19.629V22.4331H4.00586ZM6.00878 20.4302H18.0263V19.629C18.0263 19.4454 17.9804 19.2785 17.8886 19.1283C17.7968 18.9781 17.6758 18.8612 17.5256 18.7778C16.6243 18.3271 15.7146 17.9891 14.7966 17.7638C13.8786 17.5385 12.9523 17.4258 12.0176 17.4258C11.0829 17.4258 10.1565 17.5385 9.2385 17.7638C8.32049 17.9891 7.41083 18.3271 6.50951 18.7778C6.35929 18.8612 6.23828 18.9781 6.14648 19.1283C6.05468 19.2785 6.00878 19.4454 6.00878 19.629V20.4302ZM12.0176 12.4185C12.5684 12.4185 13.0399 12.2224 13.4321 11.8301C13.8244 11.4379 14.0205 10.9664 14.0205 10.4156C14.0205 9.86476 13.8244 9.39324 13.4321 9.001C13.0399 8.60876 12.5684 8.41264 12.0176 8.41264C11.4667 8.41264 10.9952 8.60876 10.603 9.001C10.2107 9.39324 10.0146 9.86476 10.0146 10.4156C10.0146 10.9664 10.2107 11.4379 10.603 11.8301C10.9952 12.2224 11.4667 12.4185 12.0176 12.4185Z" fill="#9CA3AF"/>
</svg>
