<svg width="36" height="36" viewBox="0 0 36 36" fill="none" xmlns="http://www.w3.org/2000/svg">
<path d="M17.75 2.9585C15.8075 2.9585 13.8841 3.34109 12.0895 4.08444C10.2949 4.8278 8.66424 5.91734 7.29071 7.29087C4.51674 10.0649 2.95833 13.8272 2.95833 17.7502C2.95833 24.2881 7.20354 29.835 13.0758 31.8022C13.8154 31.9206 14.0521 31.462 14.0521 31.0627V28.5629C9.95479 29.4504 9.08208 26.5808 9.08208 26.5808C8.40167 24.865 7.44021 24.4064 7.44021 24.4064C6.09417 23.4893 7.54375 23.5189 7.54375 23.5189C9.02292 23.6225 9.80687 25.0425 9.80687 25.0425C11.0937 27.2908 13.2681 26.6252 14.1112 26.2702C14.2444 25.3087 14.629 24.6579 15.0431 24.2881C11.7594 23.9183 8.31292 22.6462 8.31292 17.0106C8.31292 15.3687 8.875 14.0522 9.83646 13.002C9.68854 12.6322 9.17083 11.0939 9.98437 9.09704C9.98437 9.09704 11.2269 8.69766 14.0521 10.6058C15.2206 10.2804 16.4927 10.1177 17.75 10.1177C19.0073 10.1177 20.2794 10.2804 21.4479 10.6058C24.2731 8.69766 25.5156 9.09704 25.5156 9.09704C26.3292 11.0939 25.8115 12.6322 25.6635 13.002C26.625 14.0522 27.1871 15.3687 27.1871 17.0106C27.1871 22.661 23.7258 23.9035 20.4273 24.2733C20.9598 24.7318 21.4479 25.6341 21.4479 27.0097V31.0627C21.4479 31.462 21.6846 31.9354 22.439 31.8022C28.3113 29.8202 32.5417 24.2881 32.5417 17.7502C32.5417 15.8077 32.1591 13.8842 31.4157 12.0896C30.6724 10.295 29.5828 8.66441 28.2093 7.29087C26.8358 5.91734 25.2051 4.8278 23.4105 4.08444C21.6159 3.34109 19.6925 2.9585 17.75 2.9585Z" fill="white" fill-opacity="0.75"/>
</svg>
