<svg width="42" height="51" viewBox="0 0 42 51" fill="none" xmlns="http://www.w3.org/2000/svg">
<path d="M1.73242 39.2656V34.4152C1.73242 33.4335 1.98505 32.5313 2.4903 31.7085C2.99556 30.8856 3.66682 30.2577 4.5041 29.8246C6.29415 28.9296 8.11306 28.2583 9.96085 27.8108C11.8086 27.3633 13.6853 27.1395 15.5908 27.1395C17.4964 27.1395 19.373 27.3633 21.2208 27.8108C23.0686 28.2583 24.8875 28.9296 26.6776 29.8246C27.5148 30.2577 28.1861 30.8856 28.6914 31.7085C29.1966 32.5313 29.4492 33.4335 29.4492 34.4152V39.2656H1.73242ZM32.9138 39.2656V34.0687C32.9138 32.7984 32.5602 31.5785 31.8528 30.4092C31.1454 29.2399 30.1422 28.2366 28.8429 27.3994C30.3154 27.5726 31.7012 27.8685 33.0005 28.2872C34.2997 28.7058 35.5123 29.2183 36.6383 29.8246C37.6777 30.402 38.4716 31.0444 39.0202 31.7518C39.5688 32.4591 39.843 33.2314 39.843 34.0687V39.2656H32.9138ZM15.5908 25.4072C13.6853 25.4072 12.054 24.7287 10.6971 23.3718C9.34011 22.0148 8.66163 20.3835 8.66163 18.478C8.66163 16.5725 9.34011 14.9412 10.6971 13.5843C12.054 12.2273 13.6853 11.5488 15.5908 11.5488C17.4964 11.5488 19.1276 12.2273 20.4846 13.5843C21.8415 14.9412 22.52 16.5725 22.52 18.478C22.52 20.3835 21.8415 22.0148 20.4846 23.3718C19.1276 24.7287 17.4964 25.4072 15.5908 25.4072ZM32.9138 18.478C32.9138 20.3835 32.2354 22.0148 30.8784 23.3718C29.5214 24.7287 27.8902 25.4072 25.9846 25.4072C25.667 25.4072 25.2628 25.3711 24.772 25.2989C24.2812 25.2268 23.877 25.1474 23.5594 25.0608C24.3389 24.1369 24.938 23.1119 25.3567 21.9859C25.7753 20.8599 25.9846 19.6906 25.9846 18.478C25.9846 17.2654 25.7753 16.0961 25.3567 14.9701C24.938 13.8441 24.3389 12.8192 23.5594 11.8953C23.9636 11.7509 24.3678 11.6571 24.772 11.6138C25.1762 11.5705 25.5804 11.5488 25.9846 11.5488C27.8902 11.5488 29.5214 12.2273 30.8784 13.5843C32.2354 14.9412 32.9138 16.5725 32.9138 18.478ZM5.19702 35.801H25.9846V34.4152C25.9846 34.0976 25.9052 33.8089 25.7464 33.549C25.5877 33.2892 25.3783 33.0871 25.1185 32.9427C23.5594 32.1632 21.9859 31.5785 20.398 31.1888C18.81 30.799 17.2076 30.6041 15.5908 30.6041C13.974 30.6041 12.3716 30.799 10.7837 31.1888C9.19575 31.5785 7.62225 32.1632 6.06317 32.9427C5.80333 33.0871 5.59401 33.2892 5.43522 33.549C5.27642 33.8089 5.19702 34.0976 5.19702 34.4152V35.801ZM15.5908 21.9426C16.5436 21.9426 17.3592 21.6034 18.0377 20.9249C18.7162 20.2464 19.0554 19.4308 19.0554 18.478C19.0554 17.5252 18.7162 16.7096 18.0377 16.0311C17.3592 15.3527 16.5436 15.0134 15.5908 15.0134C14.6381 15.0134 13.8224 15.3527 13.144 16.0311C12.4655 16.7096 12.1262 17.5252 12.1262 18.478C12.1262 19.4308 12.4655 20.2464 13.144 20.9249C13.8224 21.6034 14.6381 21.9426 15.5908 21.9426Z" fill="#A855F7"/>
</svg>
