<svg width="26" height="26" viewBox="0 0 26 26" fill="none" xmlns="http://www.w3.org/2000/svg">
<path d="M12.7273 12.1969C12.024 12.1969 11.3496 11.9175 10.8524 11.4202C10.3551 10.923 10.0758 10.2486 10.0758 9.54534C10.0758 8.84211 10.3551 8.16769 10.8524 7.67043C11.3496 7.17318 12.024 6.89382 12.7273 6.89382C13.4305 6.89382 14.1049 7.17318 14.6022 7.67043C15.0994 8.16769 15.3788 8.84211 15.3788 9.54534C15.3788 9.89354 15.3102 10.2383 15.1769 10.56C15.0437 10.8817 14.8484 11.174 14.6022 11.4202C14.356 11.6665 14.0637 11.8618 13.742 11.995C13.4203 12.1283 13.0755 12.1969 12.7273 12.1969ZM12.7273 2.12109C10.7582 2.12109 8.86985 2.90329 7.47753 4.2956C6.08522 5.68792 5.30302 7.5763 5.30302 9.54534C5.30302 15.1135 12.7273 23.3332 12.7273 23.3332C12.7273 23.3332 20.1515 15.1135 20.1515 9.54534C20.1515 7.5763 19.3693 5.68792 17.977 4.2956C16.5847 2.90329 14.6963 2.12109 12.7273 2.12109Z" fill="#D75C37"/>
</svg>
