<svg width="36" height="36" viewBox="0 0 36 36" fill="none" xmlns="http://www.w3.org/2000/svg">
<path d="M28.1041 4.4375C28.8887 4.4375 29.6411 4.74918 30.1959 5.30397C30.7507 5.85877 31.0624 6.61123 31.0624 7.39582V28.1041C31.0624 28.8887 30.7507 29.6411 30.1959 30.1959C29.6411 30.7507 28.8887 31.0624 28.1041 31.0624H7.39581C6.61121 31.0624 5.85875 30.7507 5.30396 30.1959C4.74916 29.6411 4.43748 28.8887 4.43748 28.1041V7.39582C4.43748 6.61123 4.74916 5.85877 5.30396 5.30397C5.85875 4.74918 6.61121 4.4375 7.39581 4.4375H28.1041ZM27.3645 27.3645V19.5249C27.3645 18.2461 26.8565 17.0195 25.9521 16.1152C25.0478 15.2109 23.8213 14.7029 22.5424 14.7029C21.2851 14.7029 19.8208 15.472 19.1108 16.6258V14.9839H14.9839V27.3645H19.1108V20.0722C19.1108 18.9333 20.0278 18.0014 21.1668 18.0014C21.716 18.0014 22.2427 18.2196 22.6311 18.6079C23.0195 18.9963 23.2376 19.523 23.2376 20.0722V27.3645H27.3645ZM10.1766 12.6616C10.8357 12.6616 11.4678 12.3998 11.9338 11.9338C12.3998 11.4678 12.6616 10.8357 12.6616 10.1766C12.6616 8.80103 11.5523 7.67686 10.1766 7.67686C9.51365 7.67686 8.87782 7.94023 8.40902 8.40903C7.94022 8.87783 7.67685 9.51366 7.67685 10.1766C7.67685 11.5523 8.80101 12.6616 10.1766 12.6616ZM12.2327 27.3645V14.9839H8.13539V27.3645H12.2327Z" fill="white" fill-opacity="0.75"/>
</svg>
