<svg width="30" height="36" viewBox="0 0 30 36" fill="none" xmlns="http://www.w3.org/2000/svg">
<path d="M7.5 31.75C6.45833 31.75 5.57292 31.3854 4.84375 30.6562C4.11458 29.9271 3.75 29.0417 3.75 28C3.75 26.9583 4.11458 26.0729 4.84375 25.3438C5.57292 24.6146 6.45833 24.25 7.5 24.25C7.79167 24.25 8.0625 24.2812 8.3125 24.3438C8.5625 24.4062 8.80208 24.4896 9.03125 24.5938L10.8125 22.375C10.2292 21.7292 9.82292 21 9.59375 20.1875C9.36458 19.375 9.3125 18.5625 9.4375 17.75L6.90625 16.9062C6.55208 17.4271 6.10417 17.8438 5.5625 18.1562C5.02083 18.4688 4.41667 18.625 3.75 18.625C2.70833 18.625 1.82292 18.2604 1.09375 17.5312C0.364583 16.8021 0 15.9167 0 14.875C0 13.8333 0.364583 12.9479 1.09375 12.2188C1.82292 11.4896 2.70833 11.125 3.75 11.125C4.79167 11.125 5.67708 11.4896 6.40625 12.2188C7.13542 12.9479 7.5 13.8333 7.5 14.875C7.5 14.9167 7.5 14.9583 7.5 15C7.5 15.0417 7.5 15.0833 7.5 15.125L10.0312 16C10.4479 15.25 11.0052 14.6146 11.7031 14.0938C12.401 13.5729 13.1875 13.2396 14.0625 13.0938V10.375C13.25 10.1458 12.5781 9.70312 12.0469 9.04688C11.5156 8.39062 11.25 7.625 11.25 6.75C11.25 5.70833 11.6146 4.82292 12.3438 4.09375C13.0729 3.36458 13.9583 3 15 3C16.0417 3 16.9271 3.36458 17.6562 4.09375C18.3854 4.82292 18.75 5.70833 18.75 6.75C18.75 7.625 18.4792 8.39062 17.9375 9.04688C17.3958 9.70312 16.7292 10.1458 15.9375 10.375V13.0938C16.8125 13.2396 17.599 13.5729 18.2969 14.0938C18.9948 14.6146 19.5521 15.25 19.9688 16L22.5 15.125C22.5 15.0833 22.5 15.0417 22.5 15C22.5 14.9583 22.5 14.9167 22.5 14.875C22.5 13.8333 22.8646 12.9479 23.5938 12.2188C24.3229 11.4896 25.2083 11.125 26.25 11.125C27.2917 11.125 28.1771 11.4896 28.9062 12.2188C29.6354 12.9479 30 13.8333 30 14.875C30 15.9167 29.6354 16.8021 28.9062 17.5312C28.1771 18.2604 27.2917 18.625 26.25 18.625C25.5833 18.625 24.974 18.4688 24.4219 18.1562C23.8698 17.8438 23.4271 17.4271 23.0938 16.9062L20.5625 17.75C20.6875 18.5625 20.6354 19.3698 20.4062 20.1719C20.1771 20.974 19.7708 21.7083 19.1875 22.375L20.9688 24.5625C21.1979 24.4583 21.4375 24.3802 21.6875 24.3281C21.9375 24.276 22.2083 24.25 22.5 24.25C23.5417 24.25 24.4271 24.6146 25.1562 25.3438C25.8854 26.0729 26.25 26.9583 26.25 28C26.25 29.0417 25.8854 29.9271 25.1562 30.6562C24.4271 31.3854 23.5417 31.75 22.5 31.75C21.4583 31.75 20.5729 31.3854 19.8438 30.6562C19.1146 29.9271 18.75 29.0417 18.75 28C18.75 27.5833 18.8177 27.1823 18.9531 26.7969C19.0885 26.4115 19.2708 26.0625 19.5 25.75L17.7188 23.5312C16.8646 24.0104 15.9531 24.25 14.9844 24.25C14.0156 24.25 13.1042 24.0104 12.25 23.5312L10.5 25.75C10.7292 26.0625 10.9115 26.4115 11.0469 26.7969C11.1823 27.1823 11.25 27.5833 11.25 28C11.25 29.0417 10.8854 29.9271 10.1562 30.6562C9.42708 31.3854 8.54167 31.75 7.5 31.75ZM3.75 16.125C4.10417 16.125 4.40104 16.0052 4.64062 15.7656C4.88021 15.526 5 15.2292 5 14.875C5 14.5208 4.88021 14.224 4.64062 13.9844C4.40104 13.7448 4.10417 13.625 3.75 13.625C3.39583 13.625 3.09896 13.7448 2.85938 13.9844C2.61979 14.224 2.5 14.5208 2.5 14.875C2.5 15.2292 2.61979 15.526 2.85938 15.7656C3.09896 16.0052 3.39583 16.125 3.75 16.125ZM7.5 29.25C7.85417 29.25 8.15104 29.1302 8.39062 28.8906C8.63021 28.651 8.75 28.3542 8.75 28C8.75 27.6458 8.63021 27.349 8.39062 27.1094C8.15104 26.8698 7.85417 26.75 7.5 26.75C7.14583 26.75 6.84896 26.8698 6.60938 27.1094C6.36979 27.349 6.25 27.6458 6.25 28C6.25 28.3542 6.36979 28.651 6.60938 28.8906C6.84896 29.1302 7.14583 29.25 7.5 29.25ZM15 8C15.3542 8 15.651 7.88021 15.8906 7.64062C16.1302 7.40104 16.25 7.10417 16.25 6.75C16.25 6.39583 16.1302 6.09896 15.8906 5.85938C15.651 5.61979 15.3542 5.5 15 5.5C14.6458 5.5 14.349 5.61979 14.1094 5.85938C13.8698 6.09896 13.75 6.39583 13.75 6.75C13.75 7.10417 13.8698 7.40104 14.1094 7.64062C14.349 7.88021 14.6458 8 15 8ZM15 21.75C15.875 21.75 16.6146 21.4479 17.2188 20.8438C17.8229 20.2396 18.125 19.5 18.125 18.625C18.125 17.75 17.8229 17.0104 17.2188 16.4062C16.6146 15.8021 15.875 15.5 15 15.5C14.125 15.5 13.3854 15.8021 12.7812 16.4062C12.1771 17.0104 11.875 17.75 11.875 18.625C11.875 19.5 12.1771 20.2396 12.7812 20.8438C13.3854 21.4479 14.125 21.75 15 21.75ZM22.5 29.25C22.8542 29.25 23.151 29.1302 23.3906 28.8906C23.6302 28.651 23.75 28.3542 23.75 28C23.75 27.6458 23.6302 27.349 23.3906 27.1094C23.151 26.8698 22.8542 26.75 22.5 26.75C22.1458 26.75 21.849 26.8698 21.6094 27.1094C21.3698 27.349 21.25 27.6458 21.25 28C21.25 28.3542 21.3698 28.651 21.6094 28.8906C21.849 29.1302 22.1458 29.25 22.5 29.25ZM26.25 16.125C26.6042 16.125 26.901 16.0052 27.1406 15.7656C27.3802 15.526 27.5 15.2292 27.5 14.875C27.5 14.5208 27.3802 14.224 27.1406 13.9844C26.901 13.7448 26.6042 13.625 26.25 13.625C25.8958 13.625 25.599 13.7448 25.3594 13.9844C25.1198 14.224 25 14.5208 25 14.875C25 15.2292 25.1198 15.526 25.3594 15.7656C25.599 16.0052 25.8958 16.125 26.25 16.125Z" fill="#D1D5DB"/>
</svg>
