<svg width="42" height="51" viewBox="0 0 42 51" fill="none" xmlns="http://www.w3.org/2000/svg">
<path d="M13.7036 37.8898C12.8009 37.8425 12.045 37.4806 11.4358 36.804C10.8267 36.1275 10.5457 35.3379 10.5931 34.4352L10.8511 29.5113L15.775 29.7693L15.9685 26.0764C15.014 25.9715 14.1155 25.7118 13.2732 25.2974C12.4309 24.8829 11.6735 24.2878 11.0009 23.5119L11.0956 21.7065L9.20806 21.6075L4.15338 15.9938C5.20411 14.787 6.468 13.9618 7.94505 13.518C9.42211 13.0743 10.8992 12.8911 12.3764 12.9685C13.115 13.0072 13.8302 13.0996 14.522 13.2455C15.2138 13.3915 15.9075 13.6336 16.6029 13.9718L16.7212 11.715L36.4168 12.7472L35.2986 34.0841C35.2269 35.4519 34.6873 36.5894 33.6797 37.4966C32.6721 38.4039 31.4844 38.8217 30.1166 38.75L13.7036 37.8898ZM19.0576 29.9413L28.9054 30.4574L28.7334 33.74C28.709 34.2051 28.8459 34.6031 29.144 34.9342C29.4421 35.2653 29.8236 35.443 30.2887 35.4674C30.7537 35.4917 31.1518 35.3549 31.4828 35.0568C31.8139 34.7587 31.9916 34.3771 32.016 33.9121L32.9622 15.8578L19.8318 15.1696L19.7802 16.1544L29.1119 26.5183L28.9914 28.8161L26.6936 28.6957L22.2611 23.7729L21.9156 24.0839C21.5126 24.4468 21.0911 24.7676 20.6514 25.0463C20.2116 25.325 19.7549 25.5342 19.2813 25.674L19.0576 29.9413ZM10.7752 18.3981L14.5502 18.5959L14.3653 22.1247C14.682 22.3607 15.0161 22.5291 15.3674 22.6298C15.7187 22.7305 16.0859 22.7909 16.4688 22.811C17.098 22.8439 17.6706 22.778 18.1867 22.613C18.7028 22.448 19.22 22.1323 19.7382 21.6657L20.0837 21.3546L17.9063 18.9364C17.1545 18.1015 16.2967 17.4599 15.3327 17.0117C14.3687 16.5634 13.3259 16.3099 12.2044 16.2511C11.6573 16.2224 11.1354 16.2362 10.6387 16.2925C10.142 16.3488 9.64314 16.446 9.14215 16.5844L10.7752 18.3981ZM25.4508 33.568L13.9617 32.9659L13.8757 34.6072L25.611 35.2222C25.5418 34.9717 25.4939 34.7086 25.4672 34.4329C25.4405 34.1572 25.435 33.8689 25.4508 33.568ZM13.8757 34.6072C13.8886 34.361 13.9022 34.1011 13.9165 33.8276C13.9308 33.554 13.9459 33.2668 13.9617 32.9659C13.9473 33.2394 13.933 33.513 13.9187 33.7865C13.9043 34.0601 13.89 34.3336 13.8757 34.6072Z" fill="#D04A1D"/>
</svg>
