<svg width="29" height="34" viewBox="0 0 29 34" fill="none" xmlns="http://www.w3.org/2000/svg">
<path d="M23.6351 27.2402C21.2099 27.2402 18.8137 26.7115 16.4467 25.6541C14.0797 24.5967 11.9261 23.0979 9.98591 21.1578C8.04573 19.2176 6.54694 17.064 5.48954 14.697C4.43214 12.3299 3.90344 9.93383 3.90344 7.5086C3.90344 7.15937 4.01985 6.86834 4.25267 6.63552C4.4855 6.4027 4.77652 6.28629 5.12576 6.28629H9.84039C10.112 6.28629 10.3545 6.37845 10.568 6.56276C10.7814 6.74708 10.9075 6.96535 10.9463 7.21758L11.703 11.292C11.7418 11.6024 11.7321 11.8643 11.6739 12.0777C11.6157 12.2911 11.5089 12.4755 11.3537 12.6307L8.53077 15.4827C8.91881 16.2006 9.3796 16.8942 9.91315 17.5636C10.4467 18.2329 11.0336 18.8781 11.6739 19.4989C12.2753 20.1004 12.9059 20.6582 13.5655 21.1723C14.2252 21.6865 14.9237 22.157 15.6609 22.5838L18.3966 19.8481C18.5712 19.6735 18.7992 19.5426 19.0805 19.4553C19.3618 19.368 19.6383 19.3437 19.9099 19.3825L23.9261 20.1974C24.1977 20.275 24.4208 20.4157 24.5955 20.6194C24.7701 20.8231 24.8574 21.0511 24.8574 21.3033V26.0179C24.8574 26.3672 24.741 26.6582 24.5082 26.891C24.2753 27.1238 23.9843 27.2402 23.6351 27.2402ZM7.42487 13.2709L9.34565 11.3502L8.8509 8.6145H6.26076C6.35777 9.40998 6.49358 10.1958 6.6682 10.9718C6.84282 11.7479 7.09504 12.5143 7.42487 13.2709ZM17.8436 23.6897C18.6003 24.0195 19.3715 24.2815 20.1573 24.4755C20.9431 24.6695 21.7337 24.7956 22.5292 24.8538V22.2928L19.7935 21.7398L17.8436 23.6897Z" fill="#D04A1D"/>
</svg>
