<svg width="42" height="51" viewBox="0 0 42 51" fill="none" xmlns="http://www.w3.org/2000/svg">
<path d="M10.3942 42.7302V35.2813C8.74848 33.78 7.47091 32.026 6.56145 30.0195C5.65199 28.0129 5.19727 25.898 5.19727 23.6749C5.19727 19.3442 6.71303 15.663 9.74456 12.6315C12.7761 9.59997 16.4572 8.08421 20.788 8.08421C24.3969 8.08421 27.5945 9.14524 30.3806 11.2673C33.1667 13.3894 34.9784 16.1538 35.8157 19.5607L38.0677 28.4387C38.212 28.9873 38.111 29.4853 37.7645 29.9329C37.4181 30.3804 36.9561 30.6041 36.3787 30.6041H32.9141V35.801C32.9141 36.7538 32.5748 37.5694 31.8964 38.2479C31.2179 38.9264 30.4022 39.2656 29.4495 39.2656H25.9849V42.7302H22.5203V35.801H29.4495V27.1395H34.1267L32.481 20.4268C31.817 17.7995 30.4022 15.663 28.2369 14.0173C26.0715 12.3717 23.5885 11.5488 20.788 11.5488C17.4389 11.5488 14.5806 12.7181 12.2131 15.0567C9.84561 17.3953 8.66187 20.2392 8.66187 23.5883C8.66187 25.3206 9.01555 26.9663 9.7229 28.5254C10.4303 30.0844 11.4335 31.4703 12.7328 32.6829L13.8588 33.7223V42.7302H10.3942ZM19.0557 30.6041H22.5203L22.7801 28.4387C23.0111 28.3521 23.2204 28.2511 23.4081 28.1356C23.5957 28.0201 23.7618 27.8902 23.9061 27.7458L25.8983 28.612L27.6306 25.6671L25.8983 24.3678C25.956 24.1369 25.9849 23.9059 25.9849 23.6749C25.9849 23.4439 25.956 23.213 25.8983 22.982L27.6306 21.6828L25.8983 18.7379L23.9061 19.604C23.7618 19.4596 23.5957 19.3297 23.4081 19.2142C23.2204 19.0988 23.0111 18.9977 22.7801 18.9111L22.5203 16.7457H19.0557L18.7958 18.9111C18.5649 18.9977 18.3555 19.0988 18.1679 19.2142C17.9802 19.3297 17.8142 19.4596 17.6698 19.604L15.6777 18.7379L13.9454 21.6828L15.6777 22.982C15.6199 23.213 15.5911 23.4439 15.5911 23.6749C15.5911 23.9059 15.6199 24.1369 15.6777 24.3678L13.9454 25.6671L15.6777 28.612L17.6698 27.7458C17.8142 27.8902 17.9802 28.0201 18.1679 28.1356C18.3555 28.2511 18.5649 28.3521 18.7958 28.4387L19.0557 30.6041ZM20.788 26.2734C20.0662 26.2734 19.4527 26.0207 18.9474 25.5155C18.4422 25.0102 18.1895 24.3967 18.1895 23.6749C18.1895 22.9531 18.4422 22.3396 18.9474 21.8343C19.4527 21.3291 20.0662 21.0765 20.788 21.0765C21.5098 21.0765 22.1233 21.3291 22.6285 21.8343C23.1338 22.3396 23.3864 22.9531 23.3864 23.6749C23.3864 24.3967 23.1338 25.0102 22.6285 25.5155C22.1233 26.0207 21.5098 26.2734 20.788 26.2734Z" fill="#3B82F6"/>
</svg>
