<svg width="39" height="39" viewBox="0 0 39 39" fill="none" xmlns="http://www.w3.org/2000/svg">
<g clip-path="url(#clip0_2028_4268)">
<path d="M37.5378 29.0614H4.84359V6.0544C4.84359 5.38538 4.30171 4.84351 3.63269 4.84351H1.2109C0.541876 4.84351 0 5.38538 0 6.0544V31.4832C0 32.8205 1.08451 33.905 2.42179 33.905H37.5378C38.2068 33.905 38.7487 33.3631 38.7487 32.6941V30.2723C38.7487 29.6033 38.2068 29.0614 37.5378 29.0614ZM35.116 7.2653H26.1811C24.563 7.2653 23.7525 9.22165 24.8968 10.366L27.3489 12.818L21.7961 18.3715L16.2434 12.8188C15.2974 11.8728 13.7641 11.8728 12.8189 12.8188L7.62032 18.0173C7.14732 18.4903 7.14732 19.257 7.62032 19.73L9.33223 21.4419C9.80523 21.9149 10.5719 21.9149 11.0449 21.4419L14.5308 17.9552L20.0835 23.508C21.0295 24.454 22.5628 24.454 23.508 23.508L30.7734 16.2426L33.2255 18.6946C34.3698 19.8389 36.3261 19.0284 36.3261 17.4103V8.4762C36.3269 7.80718 35.785 7.2653 35.116 7.2653Z" fill="black"/>
</g>
<defs>
<clipPath id="clip0_2028_4268">
<rect width="38.7487" height="38.7487" fill="white"/>
</clipPath>
</defs>
</svg>
