<svg width="42" height="51" viewBox="0 0 42 51" fill="none" xmlns="http://www.w3.org/2000/svg">
<path d="M9.78706 21.9858L13.1651 23.4149C13.5693 22.6065 13.9879 21.827 14.421 21.0763C14.854 20.3257 15.3304 19.575 15.8501 18.8243L13.4249 18.348L9.78706 21.9858ZM15.9367 25.5803L20.8738 30.4741C22.0864 30.0121 23.3856 29.3048 24.7715 28.352C26.1573 27.3992 27.4565 26.3165 28.6691 25.1039C30.6902 23.0829 32.2709 20.8381 33.4113 18.3696C34.5518 15.9011 35.0498 13.6274 34.9054 11.5487C32.8267 11.4043 30.5458 11.9023 28.0628 13.0428C25.5799 14.1832 23.3279 15.7639 21.3069 17.785C20.0943 18.9976 19.0116 20.2968 18.0588 21.6826C17.106 23.0685 16.3987 24.3677 15.9367 25.5803ZM23.6455 22.7653C22.9814 22.1013 22.6494 21.2856 22.6494 20.3184C22.6494 19.3512 22.9814 18.5356 23.6455 17.8716C24.3095 17.2075 25.1324 16.8755 26.114 16.8755C27.0956 16.8755 27.9185 17.2075 28.5825 17.8716C29.2466 18.5356 29.5786 19.3512 29.5786 20.3184C29.5786 21.2856 29.2466 22.1013 28.5825 22.7653C27.9185 23.4294 27.0956 23.7614 26.114 23.7614C25.1324 23.7614 24.3095 23.4294 23.6455 22.7653ZM24.4683 36.667L28.1061 33.0292L27.6298 30.604C26.8791 31.1237 26.1284 31.5928 25.3778 32.0115C24.6271 32.4301 23.8476 32.8415 23.0392 33.2457L24.4683 36.667ZM38.0236 8.38722C38.5721 11.8807 38.2329 15.2803 37.0058 18.5861C35.7788 21.892 33.6639 25.0462 30.6613 28.0488L31.5274 32.3363C31.6429 32.9137 31.6141 33.4767 31.4408 34.0253C31.2676 34.5738 30.9789 35.0502 30.5747 35.4544L23.299 42.7301L19.6612 34.1985L12.2556 26.7929L3.72401 23.1551L10.9564 15.8794C11.3606 15.4752 11.8442 15.1865 12.4072 15.0133C12.9702 14.84 13.5404 14.8112 14.1178 14.9267L18.4053 15.7928C21.4079 12.7902 24.5549 10.6681 27.8463 9.4266C31.1377 8.18512 34.5301 7.83866 38.0236 8.38722ZM6.79885 32.293C7.80935 31.2825 9.04362 30.77 10.5016 30.7556C11.9597 30.7411 13.1939 31.2392 14.2044 32.2497C15.2149 33.2602 15.713 34.4944 15.6985 35.9525C15.6841 37.4105 15.1716 38.6447 14.1611 39.6553C13.4393 40.377 12.2339 40.9978 10.5449 41.5175C8.85595 42.0372 6.52456 42.4991 3.55078 42.9033C3.95498 39.9295 4.41693 37.5981 4.93662 35.9092C5.45631 34.2202 6.07705 33.0148 6.79885 32.293ZM9.26737 34.7182C8.97866 35.0069 8.68994 35.5338 8.40122 36.2989C8.11251 37.064 7.91041 37.8363 7.79492 38.6159C8.57445 38.5004 9.34677 38.3055 10.1119 38.0312C10.877 37.7569 11.4039 37.4754 11.6926 37.1867C12.0391 36.8403 12.2267 36.4216 12.2556 35.9308C12.2845 35.44 12.1257 35.0214 11.7792 34.6749C11.4328 34.3284 11.0141 34.1624 10.5233 34.1769C10.0325 34.1913 9.61383 34.3717 9.26737 34.7182Z" fill="#F97316"/>
</svg>
