<svg width="28" height="28" viewBox="0 0 28 28" fill="none" xmlns="http://www.w3.org/2000/svg">
<g clip-path="url(#clip0_2971_320)">
<path d="M25.4746 4.57071L14.9899 0.202091C14.6705 0.0696009 14.3281 0.00140381 13.9824 0.00140381C13.6366 0.00140381 13.2942 0.0696009 12.9749 0.202091L2.49017 4.57071C1.51269 4.97481 0.873779 5.93045 0.873779 6.98984C0.873779 17.8295 7.12637 25.3217 12.9694 27.7572C13.6138 28.0248 14.3401 28.0248 14.9844 27.7572C19.6643 25.8077 27.0855 19.0745 27.0855 6.98984C27.0855 5.93045 26.4466 4.97481 25.4746 4.57071ZM13.9851 24.3715L13.9796 3.56593L23.5852 7.56868C23.4049 15.8363 19.1019 21.8268 13.9851 24.3715Z" fill="#D04A1D"/>
</g>
<defs>
<clipPath id="clip0_2971_320">
<rect width="27.9592" height="27.9592" fill="white"/>
</clipPath>
</defs>
</svg>
