<svg width="25" height="29" viewBox="0 0 25 29" fill="none" xmlns="http://www.w3.org/2000/svg">
<path d="M6.50951 13.42L12.0176 4.4068L17.5256 13.42H6.50951ZM17.5256 24.436C16.2738 24.436 15.2097 23.9979 14.3334 23.1216C13.4572 22.2453 13.019 21.1813 13.019 19.9295C13.019 18.6776 13.4572 17.6136 14.3334 16.7373C15.2097 15.861 16.2738 15.4229 17.5256 15.4229C18.7774 15.4229 19.8415 15.861 20.7177 16.7373C21.594 17.6136 22.0322 18.6776 22.0322 19.9295C22.0322 21.1813 21.594 22.2453 20.7177 23.1216C19.8415 23.9979 18.7774 24.436 17.5256 24.436ZM3.00439 23.9353V15.9236H11.0161V23.9353H3.00439ZM17.5256 22.4331C18.2266 22.4331 18.8191 22.1911 19.3032 21.7071C19.7872 21.223 20.0292 20.6305 20.0292 19.9295C20.0292 19.2284 19.7872 18.6359 19.3032 18.1519C18.8191 17.6678 18.2266 17.4258 17.5256 17.4258C16.8246 17.4258 16.232 17.6678 15.748 18.1519C15.264 18.6359 15.0219 19.2284 15.0219 19.9295C15.0219 20.6305 15.264 21.223 15.748 21.7071C16.232 22.1911 16.8246 22.4331 17.5256 22.4331ZM5.00732 21.9324H9.01316V17.9265H5.00732V21.9324ZM10.0647 11.417H13.9704L12.0176 8.26243L10.0647 11.417Z" fill="#9CA3AF"/>
</svg>
