<svg width="450" height="450" viewBox="0 0 450 450" fill="none" xmlns="http://www.w3.org/2000/svg">
<path d="M60.8079 224.786L142.797 82.7774L306.774 82.7779L388.763 224.786L306.774 366.795L142.796 366.795L60.8079 224.786Z" stroke="#902501"/>
<path d="M69.2204 216.633L154.063 85.9864L309.628 94.1398L380.35 232.939L295.508 363.586L139.942 355.433L69.2204 216.633Z" stroke="#902501" stroke-width="0.95"/>
<path d="M77.5314 209.095L164.517 89.3688L311.696 104.839L371.889 240.033L284.903 359.759L137.724 344.29L77.5314 209.095Z" stroke="#902501" stroke-width="0.9025"/>
<path d="M85.847 202.689L174.322 93.4309L313.182 115.424L363.565 246.677L275.09 355.935L136.23 333.942L85.847 202.689Z" stroke="#902501" stroke-width="0.857375"/>
<path d="M94.2843 196.908L183.654 97.6528L314.296 125.422L355.568 252.445L266.198 351.7L135.557 323.931L94.2843 196.908Z" stroke="#902501" stroke-width="0.814506"/>
<path d="M102.367 191.836L192.087 102.116L314.646 134.957L347.486 257.516L257.766 347.235L135.207 314.396L102.367 191.836Z" stroke="#902501" stroke-width="0.773781"/>
<path d="M110.287 187.427L199.864 106.771L314.504 144.019L339.565 261.924L249.988 342.58L135.348 305.332L110.287 187.427Z" stroke="#902501" stroke-width="0.735092"/>
<path d="M118.021 183.639L207.013 111.575L313.919 152.612L331.832 265.713L242.839 337.777L135.935 296.74L118.021 183.639Z" stroke="#902501" stroke-width="0.698337"/>
</svg>
