<svg width="42" height="51" viewBox="0 0 42 51" fill="none" xmlns="http://www.w3.org/2000/svg">
<path d="M18.9692 31.5569L28.7567 21.7694L26.2882 19.3009L18.9692 26.6198L15.3313 22.982L12.8628 25.4505L18.9692 31.5569ZM20.7881 42.7302C16.7749 41.7197 13.4619 39.4172 10.849 35.8227C8.23613 32.2281 6.92969 28.2366 6.92969 23.8481V13.2811L20.7881 8.0842L34.6465 13.2811V23.8481C34.6465 28.2366 33.3401 32.2281 30.7272 35.8227C28.1143 39.4172 24.8013 41.7197 20.7881 42.7302ZM20.7881 39.0924C23.7908 38.1396 26.2737 36.2341 28.237 33.3758C30.2003 30.5175 31.1819 27.3416 31.1819 23.8481V15.663L20.7881 11.7653L10.3943 15.663V23.8481C10.3943 27.3416 11.3759 30.5175 13.3392 33.3758C15.3025 36.2341 17.7854 38.1396 20.7881 39.0924Z" fill="#22C55E"/>
</svg>
