<svg width="30" height="36" viewBox="0 0 30 36" fill="none" xmlns="http://www.w3.org/2000/svg">
<path d="M10.625 23H20C21.0417 23 21.9271 22.6354 22.6562 21.9062C23.3854 21.1771 23.75 20.2917 23.75 19.25C23.75 18.2083 23.3854 17.3229 22.6562 16.5938C21.9271 15.8646 21.0417 15.5 20 15.5C19.8333 14.2917 19.2812 13.2604 18.3438 12.4062C17.4062 11.5521 16.3542 11.125 15.1875 11.125C14.125 11.125 13.1615 11.3958 12.2969 11.9375C11.4323 12.4792 10.7917 13.25 10.375 14.25C9.1875 14.3542 8.20312 14.8073 7.42188 15.6094C6.64062 16.4115 6.25 17.4167 6.25 18.625C6.25 19.8333 6.67708 20.8646 7.53125 21.7188C8.38542 22.5729 9.41667 23 10.625 23ZM10.625 20.5C10.1042 20.5 9.66146 20.3177 9.29688 19.9531C8.93229 19.5885 8.75 19.1458 8.75 18.625C8.75 18.1042 8.93229 17.6615 9.29688 17.2969C9.66146 16.9323 10.1042 16.75 10.625 16.75H12.5V16.125C12.5 15.4375 12.7448 14.849 13.2344 14.3594C13.724 13.8698 14.3125 13.625 15 13.625C15.6875 13.625 16.276 13.8698 16.7656 14.3594C17.2552 14.849 17.5 15.4375 17.5 16.125V18H20C20.3542 18 20.651 18.1198 20.8906 18.3594C21.1302 18.599 21.25 18.8958 21.25 19.25C21.25 19.6042 21.1302 19.901 20.8906 20.1406C20.651 20.3802 20.3542 20.5 20 20.5H10.625ZM15 30.5C13.2708 30.5 11.6458 30.1719 10.125 29.5156C8.60417 28.8594 7.28125 27.9688 6.15625 26.8438C5.03125 25.7188 4.14062 24.3958 3.48438 22.875C2.82812 21.3542 2.5 19.7292 2.5 18C2.5 16.2708 2.82812 14.6458 3.48438 13.125C4.14062 11.6042 5.03125 10.2812 6.15625 9.15625C7.28125 8.03125 8.60417 7.14062 10.125 6.48438C11.6458 5.82812 13.2708 5.5 15 5.5C16.7292 5.5 18.3542 5.82812 19.875 6.48438C21.3958 7.14062 22.7188 8.03125 23.8438 9.15625C24.9688 10.2812 25.8594 11.6042 26.5156 13.125C27.1719 14.6458 27.5 16.2708 27.5 18C27.5 19.7292 27.1719 21.3542 26.5156 22.875C25.8594 24.3958 24.9688 25.7188 23.8438 26.8438C22.7188 27.9688 21.3958 28.8594 19.875 29.5156C18.3542 30.1719 16.7292 30.5 15 30.5ZM15 28C17.7917 28 20.1562 27.0312 22.0938 25.0938C24.0312 23.1562 25 20.7917 25 18C25 15.2083 24.0312 12.8438 22.0938 10.9062C20.1562 8.96875 17.7917 8 15 8C12.2083 8 9.84375 8.96875 7.90625 10.9062C5.96875 12.8438 5 15.2083 5 18C5 20.7917 5.96875 23.1562 7.90625 25.0938C9.84375 27.0312 12.2083 28 15 28Z" fill="#D1D5DB"/>
</svg>
