<svg width="26" height="26" viewBox="0 0 26 26" fill="none" xmlns="http://www.w3.org/2000/svg">
<path d="M7.02122 11.4438C8.54849 14.4453 11.0091 16.9059 14.0106 18.4332L16.3439 16.0998C16.6409 15.8029 17.0546 15.718 17.4258 15.8347C18.6136 16.2271 19.8864 16.4392 21.2121 16.4392C21.4934 16.4392 21.7632 16.551 21.9621 16.7499C22.161 16.9488 22.2727 17.2185 22.2727 17.4998V21.2119C22.2727 21.4932 22.161 21.763 21.9621 21.9619C21.7632 22.1608 21.4934 22.2726 21.2121 22.2726C16.4302 22.2726 11.8441 20.3729 8.46278 16.9916C5.08144 13.6103 3.18182 9.02418 3.18182 4.24225C3.18182 3.96096 3.29357 3.69119 3.49247 3.49228C3.69137 3.29338 3.96114 3.18164 4.24243 3.18164H7.95455C8.23584 3.18164 8.50561 3.29338 8.70451 3.49228C8.90342 3.69119 9.01516 3.96096 9.01516 4.24225C9.01516 5.568 9.22728 6.84073 9.6197 8.02861C9.73637 8.39982 9.65152 8.81346 9.35455 9.11043L7.02122 11.4438Z" fill="#D75C37"/>
</svg>
