<svg viewBox="0 0 24 24" fill="currentColor" xmlns="http://www.w3.org/2000/svg">
  <path d="M21.53 7.28c0-.37-.04-.74-.08-1.1-.22-1.34-.58-2.53-1.77-3.72-1.19-1.19-2.38-1.55-3.72-1.77-.36-.04-.73-.08-1.1-.08h-7.72c-.37 0-.74.04-1.1.08-1.34.22-2.53.58-3.72 1.77-1.19 1.19-1.55 2.38-1.77 3.72-.04.36-.08.73-.08 1.1v7.72c0 .37.04.74.08 1.1.22 1.34.58 2.53 1.77 3.72 1.19 1.19 2.38 1.55 3.72 1.77.36.04.73.08 1.1.08h7.72c.37 0 .74-.04 1.1-.08 1.34-.22 2.53-.58 3.72-1.77 1.19-1.19 1.55-2.38 1.77-3.72.04-.36.08-.73.08-1.1V7.28zm-3.95 9.72c-.02.63-.08 1.27-.21 1.88-.15.7-.42 1.33-.82 1.88-.4.55-.93.98-1.48 1.28-.55.3-1.18.47-1.88.52-.61.05-1.25.07-1.88.07h-7.72c-.63 0-1.27-.02-1.88-.07-.7-.05-1.33-.22-1.88-.52-.55-.3-1.08-.73-1.48-1.28-.4-.55-.67-1.18-.82-1.88-.13-.61-.19-1.25-.21-1.88-.02-.63-.03-1.27-.03-1.9V7.28c0-.63.01-1.27.03-1.9.02-.63.08-1.27.21-1.88.15-.7.42-1.33.82-1.88.4-.55.93-.98 1.48-1.28.55-.3 1.18-.47 1.88-.52.61-.05 1.25-.07 1.88-.07h7.72c.63 0 1.27.02 1.88.07.7.05 1.33.22 1.88.52.55.3 1.08.73 1.48 1.28.4.55.67 1.18.82 1.88.13.61.19 1.25.21 1.88.02.63.03 1.27.03 1.9v7.72c0 .63-.01 1.27-.03 1.9zm-3.95-8.72c0-1.66-1.34-3-3-3s-3 1.34-3 3 1.34 3 3 3 3-1.34 3-3zm-3-1c-.55 0-1 .45-1 1s.45 1 1 1 1-.45 1-1-.45-1-1-1zm8 1c0-.55-.45-1-1-1s-1 .45-1 1 .45 1 1 1 1-.45 1-1z"/>
</svg>
