<svg width="20" height="24" viewBox="0 0 20 24" fill="none" xmlns="http://www.w3.org/2000/svg">
<path d="M7.91666 15.75L13.75 12L7.91666 8.25001V15.75ZM9.99999 20.3333C8.84721 20.3333 7.76388 20.1146 6.74999 19.6771C5.7361 19.2396 4.85416 18.6458 4.10416 17.8958C3.35416 17.1458 2.76041 16.2639 2.32291 15.25C1.88541 14.2361 1.66666 13.1528 1.66666 12C1.66666 10.8472 1.88541 9.7639 2.32291 8.75001C2.76041 7.73612 3.35416 6.85418 4.10416 6.10418C4.85416 5.35417 5.7361 4.76042 6.74999 4.32293C7.76388 3.88543 8.84721 3.66668 9.99999 3.66668C11.1528 3.66668 12.2361 3.88543 13.25 4.32293C14.2639 4.76042 15.1458 5.35417 15.8958 6.10418C16.6458 6.85418 17.2396 7.73612 17.6771 8.75001C18.1146 9.7639 18.3333 10.8472 18.3333 12C18.3333 13.1528 18.1146 14.2361 17.6771 15.25C17.2396 16.2639 16.6458 17.1458 15.8958 17.8958C15.1458 18.6458 14.2639 19.2396 13.25 19.6771C12.2361 20.1146 11.1528 20.3333 9.99999 20.3333ZM9.99999 18.6667C11.8611 18.6667 13.4375 18.0208 14.7292 16.7292C16.0208 15.4375 16.6667 13.8611 16.6667 12C16.6667 10.1389 16.0208 8.56251 14.7292 7.27084C13.4375 5.97918 11.8611 5.33334 9.99999 5.33334C8.13888 5.33334 6.56249 5.97918 5.27082 7.27084C3.97916 8.56251 3.33332 10.1389 3.33332 12C3.33332 13.8611 3.97916 15.4375 5.27082 16.7292C6.56249 18.0208 8.13888 18.6667 9.99999 18.6667Z" fill="#9CA3AF"/>
</svg>
