<svg width="36" height="36" viewBox="0 0 36 36" fill="none" xmlns="http://www.w3.org/2000/svg">
<path d="M33.2221 8.87484C32.0831 9.39255 30.8554 9.73275 29.5833 9.89546C30.885 9.1115 31.8908 7.869 32.3642 6.37505C31.1365 7.11463 29.7756 7.63234 28.3408 7.92817C27.1723 6.65609 25.5304 5.9165 23.6667 5.9165C20.1906 5.9165 17.3506 8.7565 17.3506 12.2621C17.3506 12.765 17.4098 13.2532 17.5133 13.7117C12.2475 13.4455 7.55854 10.9161 4.4375 7.08505C3.89021 8.01692 3.57958 9.1115 3.57958 10.2653C3.57958 12.4692 4.68896 14.4217 6.40479 15.5311C5.35458 15.5311 4.37833 15.2353 3.52042 14.7915V14.8359C3.52042 17.9125 5.70958 20.4863 8.60875 21.0632C7.67811 21.319 6.70068 21.3544 5.75396 21.1667C6.15571 22.4277 6.94252 23.531 8.0038 24.3217C9.06507 25.1123 10.3474 25.5505 11.6706 25.5746C9.42772 27.3504 6.64739 28.3102 3.78667 28.2963C3.28375 28.2963 2.78083 28.2667 2.27792 28.2076C5.08833 30.0121 8.43125 31.0623 12.0108 31.0623C23.6667 31.0623 30.0715 21.3886 30.0715 13.0017C30.0715 12.7207 30.0715 12.4544 30.0567 12.1734C31.2992 11.2859 32.3642 10.1617 33.2221 8.87484Z" fill="white" fill-opacity="0.75"/>
</svg>
