<svg width="17" height="17" viewBox="0 0 17 17" fill="none" xmlns="http://www.w3.org/2000/svg">
<g clip-path="url(#clip0_891_347)">
<path d="M15.225 1.0498H11.025C10.1555 1.0498 9.45 1.75527 9.45 2.6248V6.8248C9.45 7.69434 10.1555 8.3998 11.025 8.3998H13.65V10.4998C13.65 11.6581 12.7083 12.5998 11.55 12.5998H11.2875C10.8511 12.5998 10.5 12.9509 10.5 13.3873V14.9623C10.5 15.3987 10.8511 15.7498 11.2875 15.7498H11.55C14.4506 15.7498 16.8 13.4004 16.8 10.4998V2.6248C16.8 1.75527 16.0945 1.0498 15.225 1.0498ZM5.775 1.0498H1.575C0.705469 1.0498 0 1.75527 0 2.6248V6.8248C0 7.69434 0.705469 8.3998 1.575 8.3998H4.2V10.4998C4.2 11.6581 3.25828 12.5998 2.1 12.5998H1.8375C1.40109 12.5998 1.05 12.9509 1.05 13.3873V14.9623C1.05 15.3987 1.40109 15.7498 1.8375 15.7498H2.1C5.00062 15.7498 7.35 13.4004 7.35 10.4998V2.6248C7.35 1.75527 6.64453 1.0498 5.775 1.0498Z" fill="#D96A2B"/>
</g>
<defs>
<clipPath id="clip0_891_347">
<rect width="16.8" height="16.8" fill="white"/>
</clipPath>
</defs>
</svg>
