<svg width="100" height="100" viewBox="0 0 100 100" fill="none" xmlns="http://www.w3.org/2000/svg">
<path d="M55.35 44.17H55.42V44.06L55.35 44.17ZM55.35 44.17H55.42V44.06L55.35 44.17ZM55.35 44.17H55.42V44.06L55.35 44.17ZM55.35 44.17H55.42V44.06L55.35 44.17ZM55.35 44.17H55.42V44.06L55.35 44.17ZM55.35 44.17H55.42V44.06L55.35 44.17ZM55.35 44.17H55.42V44.06L55.35 44.17ZM55.35 44.17H55.42V44.06L55.35 44.17ZM55.35 44.17H55.42V44.06L55.35 44.17ZM55.35 44.17H55.42V44.06L55.35 44.17ZM55.35 44.17H55.42V44.06L55.35 44.17ZM55.35 44.17H55.42V44.06L55.35 44.17ZM55.35 44.17H55.42V44.06L55.35 44.17ZM55.35 44.17H55.42V44.06L55.35 44.17ZM55.35 44.17H55.42V44.06L55.35 44.17ZM55.35 44.17H55.42V44.06L55.35 44.17ZM50.8 3.77002C41.7674 3.77002 32.9375 6.44852 25.4271 11.4668C17.9167 16.4851 12.0631 23.6178 8.60645 31.9629C5.14979 40.308 4.24537 49.4907 6.00756 58.3498C7.76975 67.2089 12.1194 75.3465 18.5065 81.7336C24.8935 88.1207 33.0311 92.4703 41.8903 94.2325C50.7494 95.9947 59.9321 95.0903 68.2772 91.6336C76.6223 88.1769 83.755 82.3233 88.7732 74.8129C93.7915 67.3025 96.47 58.4727 96.47 49.44C96.4568 37.3316 91.6409 25.723 83.079 17.1611C74.5171 8.59915 62.9084 3.78325 50.8 3.77002ZM39.38 70C39.3774 70.2025 39.2951 70.3958 39.151 70.538C39.0069 70.6803 38.8125 70.76 38.61 70.76H29.81C29.6085 70.76 29.4152 70.6799 29.2726 70.5374C29.1301 70.3949 29.05 70.2016 29.05 70V40.43C29.0487 40.3294 29.0674 40.2295 29.105 40.1361C29.1426 40.0427 29.1984 39.9578 29.2691 39.8861C29.3398 39.8145 29.424 39.7576 29.5169 39.7188C29.6097 39.68 29.7094 39.66 29.81 39.66H38.61C38.7111 39.66 38.8113 39.6799 38.9047 39.7186C38.9981 39.7573 39.083 39.814 39.1545 39.8855C39.226 39.957 39.2827 40.0419 39.3214 40.1354C39.3601 40.2288 39.38 40.3289 39.38 40.43V70ZM33.9 35.71C32.8063 35.71 31.7371 35.3857 30.8277 34.778C29.9183 34.1704 29.2095 33.3067 28.791 32.2963C28.3724 31.2858 28.2629 30.1739 28.4763 29.1012C28.6897 28.0285 29.2163 27.0431 29.9897 26.2697C30.7631 25.4963 31.7485 24.9697 32.8212 24.7563C33.8939 24.5429 35.0058 24.6524 36.0163 25.071C37.0267 25.4895 37.8904 26.1983 38.4981 27.1077C39.1057 28.0171 39.43 29.0863 39.43 30.18C39.4313 30.9066 39.2892 31.6263 39.0118 32.2978C38.7343 32.9693 38.327 33.5795 37.8133 34.0933C37.2995 34.607 36.6893 35.0143 36.0178 35.2918C35.3463 35.5692 34.6266 35.7113 33.9 35.71ZM76.62 70C76.6174 70.2025 76.5351 70.3958 76.391 70.538C76.2469 70.6803 76.0525 70.76 75.85 70.76H67.05C66.9502 70.76 66.8514 70.7404 66.7592 70.7022C66.667 70.664 66.5832 70.608 66.5126 70.5374C66.4421 70.4668 66.3861 70.3831 66.3479 70.2909C66.3097 70.1987 66.29 70.0998 66.29 70V54.11C66.29 49.93 64.8 47.11 61.06 47.11C59.8946 47.1165 58.7597 47.4833 57.8109 48.16C56.8621 48.8367 56.1457 49.7903 55.76 50.89C55.4964 51.7028 55.3812 52.5564 55.42 53.41V70C55.42 70.2042 55.3389 70.4001 55.1945 70.5445C55.0501 70.6889 54.8542 70.77 54.65 70.77H45.85C45.7494 70.77 45.6497 70.75 45.5569 70.7112C45.464 70.6724 45.3798 70.6155 45.3091 70.5439C45.2384 70.4723 45.1826 70.3873 45.145 70.2939C45.1074 70.2006 45.0887 70.1007 45.09 70C45.09 65.78 45.2 45.29 45.09 40.47C45.0887 40.3694 45.1074 40.2695 45.145 40.1761C45.1826 40.0827 45.2384 39.9978 45.3091 39.9261C45.3798 39.8545 45.464 39.7976 45.5569 39.7588C45.6497 39.72 45.7494 39.7 45.85 39.7H54.63C54.7315 39.6987 54.8322 39.7177 54.9263 39.7559C55.0203 39.7941 55.1057 39.8508 55.1775 39.9226C55.2493 39.9943 55.3059 40.0797 55.3442 40.1738C55.3824 40.2678 55.4014 40.3685 55.4 40.47V44.1C56.3354 42.4763 57.6976 41.1397 59.3389 40.2353C60.9801 39.331 62.8377 38.8934 64.71 38.97C71.5 38.97 76.6 43.41 76.6 52.97L76.62 70ZM55.42 44.2V44.09L55.35 44.2H55.42ZM55.35 44.2H55.42V44.09L55.35 44.2ZM55.35 44.2H55.42V44.09L55.35 44.2ZM55.35 44.2H55.42V44.09L55.35 44.2ZM55.35 44.2H55.42V44.09L55.35 44.2ZM55.35 44.2H55.42V44.09L55.35 44.2ZM55.35 44.2H55.42V44.09L55.35 44.2ZM55.35 44.2H55.42V44.09L55.35 44.2ZM55.35 44.2H55.42V44.09L55.35 44.2ZM55.35 44.2H55.42V44.09L55.35 44.2ZM55.35 44.2H55.42V44.09L55.35 44.2ZM55.35 44.2H55.42V44.09L55.35 44.2ZM55.35 44.2H55.42V44.09L55.35 44.2ZM55.35 44.2H55.42V44.09L55.35 44.2ZM55.35 44.2H55.42V44.09L55.35 44.2Z" fill="white"/>
</svg>
