<svg width="512" height="512" viewBox="0 0 512 512" fill="none" xmlns="http://www.w3.org/2000/svg">
<g clip-path="url(#clip0_1_18)">
<path d="M256 0C397.39 0 512 114.61 512 256C512 397.39 397.39 512 256 512C114.61 512 0 397.39 0 256C0 114.61 114.61 0 256 0ZM262.86 303.61C262.86 312.73 261.93 320.861 260.06 327.98C243.529 364.38 196.151 358.79 184.65 332.99C172 304.64 187.92 265.06 235.5 272.06C235.5 217.12 235.47 272.06 235.47 217.13C120.29 198.93 82.1701 369.06 196.88 403.37C263.41 417.91 314.3 375.83 313.34 306.67L313.42 207.03C338.629 229.51 379.128 232.45 384.39 232.15C384.39 213.92 384.37 200.07 384.37 180.97C314.86 176.84 313.51 110.59 313.5 106.01L262.86 105.76V303.61Z" fill="white"/>
</g>
<defs>
<clipPath id="clip0_1_18">
<rect width="512" height="512" fill="white"/>
</clipPath>
</defs>
</svg>
