<svg width="113" height="113" viewBox="0 0 113 113" fill="none" xmlns="http://www.w3.org/2000/svg">
<path d="M56.009 0C25.126 0 0 25.126 0 56.01C0 86.895 25.126 112.022 56.009 112.022C86.894 112.022 112.02 86.895 112.02 56.01C112.019 25.126 86.893 0 56.009 0ZM85.819 41.402C84.3338 43.6259 82.487 45.5857 80.355 47.2C80.364 47.525 80.37 47.85 80.37 48.175C80.37 64.509 67.941 81.404 47.141 81.404C40.7936 81.407 34.5789 79.5869 29.236 76.16C29.0455 76.0384 28.902 75.8557 28.829 75.6419C28.7559 75.428 28.7577 75.1957 28.834 74.983C28.9082 74.7691 29.0536 74.5871 29.2457 74.4674C29.4379 74.3476 29.6653 74.2974 29.89 74.325C30.767 74.426 31.636 74.476 32.474 74.476C36.554 74.476 40.442 73.379 43.855 71.283C41.7995 70.7868 39.9063 69.7699 38.3577 68.3301C36.8091 66.8902 35.6573 65.076 35.013 63.062C34.9603 62.8966 34.9513 62.7204 34.9871 62.5506C35.0228 62.3807 35.1021 62.2231 35.217 62.093C35.332 61.9627 35.4791 61.8649 35.6437 61.8093C35.8083 61.7536 35.9846 61.7422 36.155 61.776C36.343 61.812 36.532 61.843 36.72 61.869C33.247 59.656 30.994 55.765 30.994 51.457V51.314C30.9941 51.14 31.0396 50.969 31.126 50.8179C31.2124 50.6669 31.3368 50.541 31.4868 50.4527C31.6368 50.3644 31.8072 50.3168 31.9812 50.3146C32.1552 50.3124 32.3268 50.3556 32.479 50.44C32.914 50.681 33.365 50.89 33.828 51.066C32.0509 48.8697 31.0828 46.1292 31.086 43.304C31.086 41.126 31.663 38.982 32.754 37.105C32.8352 36.9651 32.9491 36.8469 33.086 36.7607C33.2229 36.6745 33.3786 36.6228 33.5399 36.61C33.7012 36.5972 33.8631 36.6238 34.0119 36.6873C34.1607 36.7509 34.2918 36.8496 34.394 36.975C39.713 43.497 47.445 47.6 55.762 48.356C55.7031 47.8605 55.6737 47.362 55.674 46.863C55.674 40.066 61.205 34.536 68.003 34.536C71.21 34.536 74.313 35.801 76.602 38.023C78.8391 37.525 80.9828 36.6747 82.953 35.504C83.0022 35.3497 83.088 35.2097 83.2033 35.0959C83.3185 34.9821 83.4597 34.898 83.6146 34.8509C83.7695 34.8037 83.9335 34.7949 84.0926 34.8251C84.2517 34.8554 84.401 34.9238 84.5278 35.0245C84.6546 35.1252 84.7551 35.2553 84.8205 35.4034C84.886 35.5515 84.9145 35.7133 84.9036 35.8749C84.8927 36.0364 84.8427 36.1929 84.7579 36.3309C84.6732 36.4689 84.5562 36.5842 84.417 36.667C83.9273 38.2023 83.1388 39.6256 82.097 40.855C82.9444 40.599 83.775 40.2904 84.584 39.931C84.7821 39.8435 85.0033 39.8227 85.2143 39.8717C85.4252 39.9207 85.6146 40.0369 85.7538 40.2028C85.8931 40.3687 85.9747 40.5753 85.9865 40.7915C85.9982 41.0078 85.9395 41.222 85.819 41.402Z" fill="white"/>
</svg>
