<svg width="9" height="10" viewBox="0 0 9 10" fill="none" xmlns="http://www.w3.org/2000/svg">
<g clip-path="url(#clip0_3033_5687)">
<path d="M4.24423 4.85054C5.58381 4.85054 6.6695 3.76486 6.6695 2.42527C6.6695 1.08569 5.58381 0 4.24423 0C2.90464 0 1.81895 1.08569 1.81895 2.42527C1.81895 3.76486 2.90464 4.85054 4.24423 4.85054ZM6.05939 5.46823L5.1537 9.09477L4.54738 6.51792L5.1537 5.45686H3.33475L3.94107 6.51792L3.33475 9.09477L2.42906 5.46823C1.07811 5.53265 0 6.63729 0 8.0034V8.79161C0 9.29372 0.40737 9.70109 0.909477 9.70109H7.57897C8.08108 9.70109 8.48845 9.29372 8.48845 8.79161V8.0034C8.48845 6.63729 7.41034 5.53265 6.05939 5.46823Z" fill="#D15A1A"/>
</g>
<defs>
<clipPath id="clip0_3033_5687">
<rect width="8.48845" height="9.70109" fill="white"/>
</clipPath>
</defs>
</svg>
