<svg width="8" height="10" viewBox="0 0 8 10" fill="none" xmlns="http://www.w3.org/2000/svg">
<g clip-path="url(#clip0_3033_5699)">
<path d="M3.26404 9.50536C0.511012 5.51429 0 5.10469 0 3.63791C0 1.62874 1.62874 0 3.63791 0C5.64707 0 7.27582 1.62874 7.27582 3.63791C7.27582 5.10469 6.7648 5.51429 4.01178 9.50536C3.83111 9.76634 3.44468 9.76632 3.26404 9.50536ZM3.63791 5.1537C4.47506 5.1537 5.1537 4.47506 5.1537 3.63791C5.1537 2.80075 4.47506 2.12211 3.63791 2.12211C2.80075 2.12211 2.12211 2.80075 2.12211 3.63791C2.12211 4.47506 2.80075 5.1537 3.63791 5.1537Z" fill="#D15A1A"/>
</g>
<defs>
<clipPath id="clip0_3033_5699">
<rect width="7.27582" height="9.70109" fill="white"/>
</clipPath>
</defs>
</svg>
