<svg width="13" height="10" viewBox="0 0 13 10" fill="none" xmlns="http://www.w3.org/2000/svg">
<g clip-path="url(#clip0_3033_5695)">
<path d="M1.81895 4.24423C2.4878 4.24423 3.03159 3.70044 3.03159 3.03159C3.03159 2.36275 2.4878 1.81896 1.81895 1.81896C1.15011 1.81896 0.606318 2.36275 0.606318 3.03159C0.606318 3.70044 1.15011 4.24423 1.81895 4.24423ZM10.3074 4.24423C10.9762 4.24423 11.52 3.70044 11.52 3.03159C11.52 2.36275 10.9762 1.81896 10.3074 1.81896C9.63856 1.81896 9.09477 2.36275 9.09477 3.03159C9.09477 3.70044 9.63856 4.24423 10.3074 4.24423ZM10.9137 4.85055H9.70109C9.36761 4.85055 9.06635 4.98508 8.84656 5.20297C9.61014 5.62171 10.152 6.37771 10.2695 7.27582H11.52C11.8554 7.27582 12.1264 7.00487 12.1264 6.6695V6.06318C12.1264 5.39434 11.5826 4.85055 10.9137 4.85055ZM6.06318 4.85055C7.23603 4.85055 8.18529 3.90128 8.18529 2.72844C8.18529 1.55559 7.23603 0.606323 6.06318 0.606323C4.89033 0.606323 3.94107 1.55559 3.94107 2.72844C3.94107 3.90128 4.89033 4.85055 6.06318 4.85055ZM7.51834 5.45687H7.36108C6.96697 5.64634 6.52929 5.76003 6.06318 5.76003C5.59707 5.76003 5.16128 5.64634 4.76528 5.45687H4.60802C3.40296 5.45687 2.42527 6.43455 2.42527 7.63961V8.1853C2.42527 8.6874 2.83264 9.09477 3.33475 9.09477H8.79161C9.29372 9.09477 9.70109 8.6874 9.70109 8.1853V7.63961C9.70109 6.43455 8.7234 5.45687 7.51834 5.45687ZM3.2798 5.20297C3.06001 4.98508 2.75875 4.85055 2.42527 4.85055H1.21264C0.543791 4.85055 0 5.39434 0 6.06318V6.6695C0 7.00487 0.270948 7.27582 0.606318 7.27582H1.85495C1.97432 6.37771 2.51622 5.62171 3.2798 5.20297Z" fill="#D15A1A"/>
</g>
<defs>
<clipPath id="clip0_3033_5695">
<rect width="12.1264" height="9.70109" fill="white"/>
</clipPath>
</defs>
</svg>
