<svg width="10" height="10" viewBox="0 0 10 10" fill="none" xmlns="http://www.w3.org/2000/svg">
<g clip-path="url(#clip0_3033_5691)">
<path d="M4.85033 0.151611C2.25453 0.151611 0.151367 2.25478 0.151367 4.85058C0.151367 7.44637 2.25453 9.54954 4.85033 9.54954C7.44613 9.54954 9.5493 7.44637 9.5493 4.85058C9.5493 2.25478 7.44613 0.151611 4.85033 0.151611ZM6.60278 6.08216L6.22383 6.55584C6.19896 6.58694 6.16821 6.61283 6.13334 6.63203C6.09846 6.65124 6.06015 6.66339 6.02058 6.66779C5.98101 6.67219 5.94096 6.66875 5.90272 6.65767C5.86448 6.64659 5.82879 6.62808 5.7977 6.60321L4.52822 5.66115C4.43952 5.59013 4.36793 5.50008 4.31873 5.39765C4.26953 5.29522 4.244 5.18305 4.24401 5.06942V2.12214C4.24401 2.04174 4.27595 1.96463 4.33281 1.90778C4.38966 1.85093 4.46677 1.81899 4.54717 1.81899H5.15349C5.23389 1.81899 5.311 1.85093 5.36786 1.90778C5.42471 1.96463 5.45665 2.04174 5.45665 2.12214V4.85058L6.5556 5.65584C6.58671 5.68073 6.6126 5.7115 6.63181 5.74639C6.65102 5.78129 6.66316 5.81963 6.66754 5.85922C6.67192 5.89881 6.66846 5.93888 6.65734 5.97714C6.64623 6.01539 6.62769 6.05108 6.60278 6.08216Z" fill="#D15A1A"/>
</g>
<defs>
<clipPath id="clip0_3033_5691">
<rect width="9.70109" height="9.70109" fill="white"/>
</clipPath>
</defs>
</svg>
